<svg width="23" height="20" viewBox="0 0 23 20" fill="none" xmlns="http://www.w3.org/2000/svg">
<path fill-rule="evenodd" clip-rule="evenodd" d="M5.19026 0.271248C6.64169 -0.0486779 8.19022 0.368151 9.58488 1.46851C10.4082 2.11807 11.0966 2.845 11.4994 3.30142C11.9023 2.84501 12.5906 2.11808 13.414 1.46852C14.8086 0.368156 16.3572 -0.04868 17.8086 0.271248C19.2586 0.590854 20.5233 1.62615 21.3934 3.25393C22.9463 6.1591 21.8337 9.15794 19.8871 11.4395L19.5284 11.1335L19.8871 11.4395L13.5649 18.8495L13.1846 18.525L13.5649 18.8495C12.4698 20.133 10.529 20.133 9.43393 18.8495L9.81429 18.525L9.43392 18.8495L3.11176 11.4395L3.48982 11.117L3.11176 11.4395C1.16516 9.15794 0.0525352 6.1591 1.60541 3.25393C2.47549 1.62615 3.74027 0.590853 5.19026 0.271248ZM11.6411 3.46421C11.6414 3.46454 11.6417 3.46487 11.6419 3.4652L11.642 3.46527C11.6417 3.46492 11.6414 3.46456 11.6411 3.46421ZM5.40551 1.24781C4.29986 1.49151 3.25094 2.29675 2.48733 3.72534L2.08415 3.50983L2.48733 3.72534C1.21222 6.11084 2.055 8.6602 3.8725 10.7905L10.1947 18.2004C10.8905 19.016 12.1083 19.016 12.8042 18.2004L19.1264 10.7905L19.5067 11.115L19.1264 10.7905C20.9438 8.66019 21.7866 6.11084 20.5115 3.72534C19.7479 2.29674 18.699 1.49151 17.5933 1.24781C16.4892 1.00442 15.2401 1.30148 14.0334 2.2536L14.0334 2.25361C13.175 2.93081 12.4647 3.70953 12.116 4.11616C11.7919 4.49414 11.2069 4.49414 10.8828 4.11616C10.5341 3.70953 9.82391 2.93081 8.96551 2.25361L8.96549 2.2536C7.75874 1.30149 6.5097 1.00442 5.40551 1.24781Z" fill="white"/>
</svg>
